<?xml version="1.0" standalone="no"?>
<!DOCTYPE svg PUBLIC "-//W3C//DTD SVG 20010904//EN"
 "http://www.w3.org/TR/2001/REC-SVG-20010904/DTD/svg10.dtd">
<svg version="1.0" xmlns="http://www.w3.org/2000/svg"
 width="1080.000000pt" height="1080.000000pt" viewBox="0 0 1080.000000 1080.000000"
 preserveAspectRatio="xMidYMid meet">
<metadata>
Created by potrace 1.11, written by Peter Selinger 2001-2013
</metadata>
<g transform="translate(0.000000,1080.000000) scale(0.100000,-0.100000)"
fill="#000000" stroke="none">
<path d="M4750 8854 c-14 -7 -35 -14 -47 -14 -30 0 -53 -26 -53 -60 0 -15 -8
-37 -17 -49 -17 -20 -28 -21 -238 -23 l-220 -3 -10 -55 c-18 -96 -14 -94 -172
-100 l-138 -5 -3 -35 c-4 -50 -19 -83 -44 -99 -14 -9 -69 -16 -148 -20 l-125
-6 -11 -64 c-8 -41 -19 -70 -30 -78 -11 -8 -46 -13 -91 -13 -71 0 -74 -1 -83
-27 -16 -46 -25 -57 -56 -72 -16 -7 -39 -23 -52 -35 -17 -15 -41 -22 -90 -26
l-67 -5 -5 -63 c-6 -75 -17 -84 -100 -92 l-55 -5 -5 -63 c-6 -75 -17 -84 -100
-92 l-55 -5 -5 -61 c-3 -41 -11 -69 -23 -82 -11 -11 -26 -35 -35 -53 -11 -21
-29 -37 -50 -44 -45 -14 -52 -29 -52 -111 0 -42 -5 -77 -13 -88 -8 -11 -37
-22 -78 -30 l-64 -11 -10 -125 c-5 -69 -16 -135 -22 -147 -9 -15 -30 -25 -69
-34 -36 -8 -59 -19 -66 -33 -7 -13 -8 -59 -4 -137 l7 -117 -29 -20 c-17 -12
-48 -22 -78 -24 l-49 -3 -2 -221 c-1 -122 -6 -239 -12 -260 -13 -49 -66 -110
-108 -125 -26 -9 -35 -19 -44 -52 -13 -49 -5 -180 15 -247 16 -52 14 -448 -2
-490 -5 -14 -11 -126 -13 -248 l-4 -224 59 -24 c32 -13 67 -33 77 -45 22 -26
34 -96 25 -152 -4 -23 -4 -112 0 -199 l7 -158 71 -48 c83 -55 83 -55 85 -220
1 -111 1 -113 27 -122 14 -6 45 -10 68 -10 59 0 66 -20 66 -176 0 -124 0 -124
26 -134 14 -6 42 -10 63 -10 49 0 59 -13 67 -84 6 -50 10 -59 33 -67 14 -6 40
-8 58 -4 18 3 42 1 54 -6 19 -10 21 -17 15 -60 -9 -68 5 -86 77 -100 68 -14
87 -34 87 -96 0 -46 24 -70 62 -60 11 3 32 1 47 -4 29 -10 51 -58 51 -113 0
-30 29 -46 84 -46 52 0 68 -19 74 -84 5 -64 19 -76 87 -76 39 0 65 -28 65 -71
0 -47 33 -76 95 -84 47 -5 59 -11 81 -40 15 -21 36 -35 52 -37 19 -2 32 -13
43 -37 20 -43 36 -49 121 -50 78 -1 91 -13 103 -94 5 -37 12 -50 28 -56 12 -4
109 -11 216 -14 107 -4 198 -10 203 -15 5 -5 12 -32 17 -61 4 -29 14 -58 20
-64 9 -9 97 -12 319 -14 340 -2 467 -9 498 -30 11 -7 44 -20 72 -28 40 -12 53
-21 58 -40 7 -27 47 -45 103 -45 20 0 54 -5 75 -10 49 -11 96 -2 103 19 3 9
12 30 20 47 34 67 34 67 160 77 133 11 204 13 248 8 17 -2 135 -3 263 -2 218
1 233 2 252 21 13 13 20 33 20 58 0 21 7 48 16 60 14 21 22 22 145 22 153 0
169 8 169 84 0 68 18 76 167 76 147 0 163 8 163 88 0 26 5 53 12 60 8 8 54 12
140 12 151 0 168 8 168 84 0 56 19 76 71 76 57 0 79 26 79 95 0 60 -3 57 84
69 50 7 65 22 72 72 12 85 8 81 75 86 75 5 89 20 89 93 0 28 5 56 12 63 7 7
39 12 75 12 71 0 83 11 83 77 0 50 14 63 67 63 31 0 49 6 64 21 21 21 22 28
15 150 -7 151 -3 159 75 159 78 0 85 13 94 164 8 143 15 156 76 156 27 0 46 7
60 21 21 21 22 28 16 144 -3 66 -3 126 1 132 12 18 50 33 86 33 23 0 43 7 56
20 19 19 20 33 19 332 -2 378 6 497 33 516 10 7 25 26 33 43 9 16 31 35 50 43
42 18 51 46 36 116 -6 28 -11 78 -11 110 0 54 -3 64 -35 99 -23 25 -35 48 -35
68 0 19 -10 39 -29 57 -38 37 -44 97 -41 462 1 191 -2 298 -9 311 -7 15 -24
22 -61 25 -29 3 -58 11 -65 19 -10 10 -16 66 -21 219 -4 113 -10 212 -15 222
-6 10 -28 19 -60 23 -72 10 -89 30 -89 105 0 53 -4 64 -29 90 -17 18 -31 46
-35 69 -5 35 -11 41 -50 56 -42 16 -44 19 -55 76 -13 64 -36 89 -81 89 -44 0
-70 26 -70 71 0 55 -15 79 -49 79 -34 0 -93 19 -103 34 -4 6 -8 29 -8 52 0 54
-16 72 -74 83 -59 11 -85 40 -86 92 0 45 -12 55 -73 64 -48 7 -77 26 -77 48 0
27 -22 87 -37 102 -12 13 -27 15 -64 10 -41 -6 -49 -4 -58 14 -6 11 -11 38
-11 61 0 56 -14 80 -48 80 -38 0 -94 17 -104 32 -4 7 -8 30 -8 51 0 75 -4 77
-158 77 -94 0 -142 4 -150 12 -7 7 -12 35 -12 63 0 77 -7 82 -135 88 -163 9
-173 12 -185 57 -13 49 -20 54 -115 80 -60 17 -121 24 -250 29 -164 7 -172 8
-217 36 -37 23 -50 39 -60 70 l-13 40 -145 -1 c-80 -1 -194 -4 -255 -6 -325
-15 -511 -15 -555 -2 -62 19 -305 17 -340 -2z"/>
</g>
</svg>
