<?xml version="1.0" standalone="no"?>
<!DOCTYPE svg PUBLIC "-//W3C//DTD SVG 20010904//EN"
 "http://www.w3.org/TR/2001/REC-SVG-20010904/DTD/svg10.dtd">
<svg version="1.0" xmlns="http://www.w3.org/2000/svg"
 width="130.000000pt" height="130.000000pt" viewBox="0 0 130.000000 130.000000"
 preserveAspectRatio="xMidYMid meet">
<metadata>
Created by potrace 1.11, written by Peter Selinger 2001-2013
</metadata>
<g transform="translate(0.000000,130.000000) scale(0.100000,-0.100000)"
fill="#000000" stroke="none">
<path d="M13 1124 c-7 -3 -13 -13 -13 -22 0 -13 3 -13 16 4 15 17 15 17 0 -8
-12 -20 -12 -28 -3 -31 9 -4 9 -6 0 -6 -7 -1 -13 -5 -13 -11 0 -5 6 -7 14 -4
8 3 17 0 21 -6 3 -6 3 -10 -2 -9 -27 5 -35 -1 -23 -16 14 -17 22 -77 9 -69 -5
3 -7 10 -4 15 4 5 2 9 -3 9 -17 0 -9 -133 8 -148 13 -12 13 -13 -2 -8 -20 6
-25 -10 -6 -17 10 -4 11 -6 1 -6 -7 -1 -13 -5 -13 -11 0 -5 8 -7 18 -4 14 5
15 4 2 -5 -16 -11 -24 -91 -9 -91 4 0 6 8 3 18 -5 14 -4 15 5 2 8 -11 7 -18
-4 -26 -20 -15 -19 -27 3 -20 15 5 15 5 1 -6 -17 -14 -23 -88 -7 -88 5 0 7 4
3 9 -3 5 -1 12 4 15 15 10 6 -25 -10 -35 -12 -8 -12 -10 0 -18 16 -10 25 -45
10 -35 -5 3 -7 10 -4 15 4 5 2 9 -3 9 -4 0 -8 -38 -9 -85 0 -47 3 -81 7 -74 5
7 10 8 14 1 3 -5 0 -12 -8 -15 -17 -7 -18 -108 -2 -119 8 -5 7 -8 0 -8 -15 0
-15 -80 0 -80 7 0 7 -3 1 -8 -16 -11 -18 -52 -3 -52 8 0 9 -3 3 -8 -6 -4 -11
-21 -12 -37 0 -26 4 -31 24 -33 18 -1 24 3 21 15 -2 9 -10 19 -18 21 -13 5
-13 3 0 -14 14 -18 14 -18 -3 -5 -17 13 -17 16 -3 26 9 7 13 15 9 19 -4 4 0 4
10 0 14 -5 16 -2 11 12 -6 16 -5 17 7 6 12 -11 12 -15 -2 -25 -12 -10 -13 -16
-4 -34 l11 -22 592 0 c457 0 592 3 592 12 0 7 3 8 8 2 4 -5 16 -11 27 -13 19
-3 19 -3 3 10 -13 10 -15 17 -7 28 9 13 10 12 5 -2 -3 -10 -2 -18 2 -18 5 0 8
132 8 294 0 162 -4 292 -8 290 -5 -3 -6 -10 -3 -15 4 -5 1 -17 -4 -26 -9 -16
-10 -15 -8 7 2 22 -1 25 -30 23 -18 -1 -33 3 -33 8 0 6 -4 8 -9 4 -5 -3 -17 2
-25 11 -13 13 -16 44 -16 185 l0 169 -153 0 c-124 0 -157 3 -173 16 -10 8 -12
12 -4 8 11 -6 10 -2 -2 13 -10 11 -18 25 -18 31 0 7 -5 12 -11 12 -5 0 -7 -5
-3 -12 4 -7 3 -8 -4 -4 -7 4 -12 1 -12 -7 0 -8 -7 -20 -15 -27 -13 -10 -19
-10 -33 4 -10 9 -21 13 -25 10 -3 -4 4 -15 16 -26 l22 -19 -27 16 c-16 10 -25
22 -21 31 6 17 19 18 28 4 5 -8 12 -7 23 2 15 12 16 11 3 -4 -8 -11 -9 -18 -3
-18 14 0 39 55 44 96 l4 30 -86 0 c-49 0 -88 -4 -92 -10 -5 -7 -8 -7 -8 2 0 6
-6 12 -14 12 -8 0 -17 -6 -19 -12 -4 -10 -6 -10 -6 0 -1 6 -8 12 -17 12 -8 0
-12 -4 -9 -10 3 -5 1 -10 -4 -10 -6 0 -11 5 -11 10 0 6 -7 10 -16 10 -14 0
-14 -3 -4 -15 11 -13 10 -14 -4 -9 -9 3 -16 11 -16 16 0 6 -8 4 -17 -3 -9 -8
-14 -9 -11 -4 5 8 -46 11 -157 11 -90 0 -162 -3 -159 -8 3 -5 10 -5 16 -2 7 4
8 2 4 -4 -7 -12 -36 -5 -36 9 0 5 -7 9 -15 9 -8 0 -15 -6 -15 -12 0 -8 -3 -9
-8 -3 -8 11 -60 17 -79 9z m46 -20 c4 3 13 0 21 -6 12 -8 12 -9 -2 -4 -11 3
-18 0 -18 -7 0 -8 -4 -6 -10 3 -5 8 -9 20 -9 25 0 6 3 4 6 -3 2 -6 8 -10 12
-8z m65 0 c3 -8 2 -12 -4 -9 -6 3 -10 10 -10 16 0 14 7 11 14 -7z m78 2 c7 4
8 2 4 -5 -9 -13 -26 -5 -25 12 0 9 2 8 6 -1 2 -6 10 -9 15 -6z m50 7 c-6 -3
-9 -10 -5 -16 4 -7 -1 -6 -10 2 -21 17 -21 17 6 18 12 0 16 -1 9 -4z m55 -15
c-3 -8 -6 -5 -6 6 -1 11 2 17 5 13 3 -3 4 -12 1 -19z m65 15 c-6 -2 -10 -8 -8
-12 3 -4 -1 -8 -9 -8 -8 0 -15 4 -15 8 0 8 19 17 35 17 6 0 4 -2 -3 -5z m55
-12 c0 -11 -5 -18 -9 -15 -4 3 -5 11 -1 19 7 21 12 19 10 -4z m170 -3 c-3 -8
-6 -5 -6 6 -1 11 2 17 5 13 3 -3 4 -12 1 -19z m54 8 c6 3 16 1 24 -6 10 -9 16
-7 24 7 6 10 11 13 11 7 0 -18 -27 -37 -35 -24 -3 5 -11 10 -17 10 -7 0 -6 -6
2 -15 7 -8 9 -15 5 -15 -10 0 -34 32 -34 45 0 6 3 4 6 -3 2 -6 9 -9 14 -6z
m129 9 c0 -7 -30 -13 -34 -7 -3 4 4 9 15 9 10 1 19 0 19 -2z m-59 -32 c-12
-20 -14 -14 -5 12 4 9 9 14 11 11 3 -2 0 -13 -6 -23z m-221 13 c0 -2 -7 -6
-15 -10 -8 -3 -15 -1 -15 4 0 6 7 10 15 10 8 0 15 -2 15 -4z m73 -3 c-7 -2
-19 -2 -25 0 -7 3 -2 5 12 5 14 0 19 -2 13 -5z m57 -14 c0 -6 -4 -7 -10 -4 -5
3 -10 11 -10 16 0 6 5 7 10 4 6 -3 10 -11 10 -16z m-586 -5 c3 -8 2 -12 -4 -9
-6 3 -10 10 -10 16 0 14 7 11 14 -7z m492 -2 c1 -7 0 -8 -3 -2 -2 5 -9 8 -14
4 -5 -3 -9 0 -9 6 0 15 23 7 26 -8z m234 -10 c0 -13 -3 -12 -16 4 -15 19 -15
18 -9 -3 8 -30 -5 -34 -40 -12 -16 11 -25 19 -20 19 6 0 21 -8 35 -17 22 -16
23 -16 17 1 -4 10 -5 22 -2 26 9 14 35 0 35 -18z m-191 -14 c-7 -12 -14 -31
-16 -42 -3 -16 -1 -17 12 -6 19 16 20 3 0 -16 -10 -10 -15 -11 -15 -3 0 8 -5
8 -17 -2 -14 -12 -14 -11 1 13 16 25 17 28 2 34 -9 3 -16 11 -16 16 0 6 6 5
15 -2 12 -10 17 -7 26 14 7 14 14 24 16 22 3 -2 -1 -15 -8 -28z m74 4 c-8 -5
-8 -11 1 -24 7 -10 15 -17 17 -15 3 1 -1 -4 -7 -12 -10 -11 -15 -11 -33 1 -11
8 -18 18 -13 23 4 4 -4 5 -18 1 -14 -3 -19 -3 -12 0 6 3 10 10 7 15 -4 5 1 6
10 3 8 -4 20 -15 26 -25 5 -11 15 -19 21 -19 6 0 4 10 -6 25 -20 31 -20 35 2
35 11 0 13 -3 5 -8z m37 -12 c0 -5 -4 -10 -10 -10 -5 0 -10 5 -10 10 0 6 5 10
10 10 6 0 10 -4 10 -10z m-158 -28 c-7 -2 -10 -8 -7 -13 4 -5 -2 -6 -11 -2
-11 4 -13 8 -6 11 7 2 10 8 7 13 -4 5 2 6 11 2 11 -4 13 -8 6 -11z m282 0 c3
-5 -1 -9 -9 -9 -8 0 -15 4 -15 9 0 4 4 8 9 8 6 0 12 -4 15 -8z m-421 -33 c-8
-8 -13 -7 -18 2 -5 8 -4 10 3 5 7 -4 12 -2 12 5 0 7 3 9 7 6 4 -4 2 -12 -4
-18z m60 0 c-8 -8 -13 -7 -18 2 -5 8 -4 10 3 5 7 -4 12 -2 12 5 0 7 3 9 7 6 4
-4 2 -12 -4 -18z m37 12 c0 -6 -4 -12 -8 -15 -5 -3 -9 1 -9 9 0 8 4 15 9 15 4
0 8 -4 8 -9z m111 -14 c-10 -9 -11 -8 -5 6 3 10 9 15 12 12 3 -3 0 -11 -7 -18z
m94 3 c3 -6 -1 -7 -9 -4 -18 7 -21 14 -7 14 6 0 13 -4 16 -10z m95 6 c0 -3 -4
-8 -10 -11 -5 -3 -10 -1 -10 4 0 6 5 11 10 11 6 0 10 -2 10 -4z m-760 -86 c0
-5 -4 -10 -10 -10 -5 0 -10 5 -10 10 0 6 5 10 10 10 6 0 10 -4 10 -10z m100
-180 c0 -5 -5 -10 -11 -10 -5 0 -7 5 -4 10 3 6 8 10 11 10 2 0 4 -4 4 -10z
m-2 -45 c0 -14 -4 -25 -8 -25 -5 0 -7 8 -5 18 2 9 4 20 4 25 2 18 9 4 9 -18z
m2 -75 c0 -5 -5 -10 -11 -10 -5 0 -7 5 -4 10 3 6 8 10 11 10 2 0 4 -4 4 -10z
m1130 -23 c0 -5 -7 -7 -15 -4 -25 10 -25 -10 0 -21 26 -12 32 -27 16 -36 -5
-3 -14 1 -21 9 -7 8 -9 15 -4 15 5 0 1 5 -9 11 -13 8 -15 14 -8 23 12 15 41
17 41 3z m-1125 -25 c-3 -3 -11 0 -18 7 -9 10 -8 11 6 5 10 -3 15 -9 12 -12z
m1060 8 c-3 -5 -11 -10 -16 -10 -6 0 -7 5 -4 10 3 6 11 10 16 10 6 0 7 -4 4
-10z m12 -17 c-4 -3 2 -12 13 -20 11 -8 20 -21 20 -29 0 -8 5 -13 12 -11 6 1
14 -7 16 -18 2 -11 9 -24 16 -28 7 -6 6 -7 -4 -5 -8 3 -17 15 -20 29 -4 16 -8
20 -14 11 -4 -6 -4 -17 0 -24 4 -7 3 -8 -5 -4 -6 4 -11 13 -10 19 1 7 1 21 0
32 -1 17 -3 18 -12 5 -9 -13 -10 -12 -5 3 8 26 -10 21 -34 -10 -12 -16 -18
-21 -14 -13 4 8 14 23 22 33 13 14 13 17 1 17 -11 0 -11 2 1 10 17 11 26 13
17 3z m-1072 -51 c-3 -3 -11 0 -18 7 -9 10 -8 11 6 5 10 -3 15 -9 12 -12z
m1155 -17 c0 -5 -5 -3 -10 5 -5 8 -10 20 -10 25 0 6 5 3 10 -5 5 -8 10 -19 10
-25z m-79 -3 c-9 -3 -8 -9 5 -23 23 -25 9 -24 -16 1 -11 11 -15 20 -9 20 5 0
7 4 4 10 -4 6 1 7 11 3 12 -4 14 -8 5 -11z m-1184 -17 c0 -8 -4 -12 -9 -9 -5
3 -6 10 -3 15 9 13 12 11 12 -6z m107 -13 c3 -5 -1 -9 -9 -9 -8 0 -12 4 -9 9
3 4 7 8 9 8 2 0 6 -4 9 -8z m1056 4 c0 -2 -7 -9 -15 -16 -13 -11 -14 -10 -9 4
5 14 24 23 24 12z m20 -37 c0 -6 -4 -7 -10 -4 -5 3 -10 11 -10 16 0 6 5 7 10
4 6 -3 10 -11 10 -16z m55 10 c11 -16 1 -19 -13 -3 -7 8 -8 14 -3 14 5 0 13
-5 16 -11z m-1238 -24 c0 -8 -4 -12 -9 -9 -5 3 -6 10 -3 15 9 13 12 11 12 -6z
m113 11 c0 -2 -8 -10 -17 -17 -16 -13 -17 -12 -4 4 13 16 21 21 21 13z m1044
-5 c3 -5 -2 -15 -12 -22 -15 -13 -16 -12 -4 3 10 13 10 17 0 21 -9 4 -9 6 -1
6 6 1 14 -3 17 -8z m62 0 c-4 -5 -3 -11 1 -14 5 -2 3 -2 -4 -1 -6 2 -14 -2
-16 -9 -2 -7 -8 -9 -12 -4 -5 4 0 14 11 22 22 17 27 18 20 6z m44 -21 c0 -5
-4 -10 -10 -10 -5 0 -10 5 -10 10 0 6 5 10 10 10 6 0 10 -4 10 -10z m-94 -9
c-3 -5 1 -11 9 -15 8 -3 15 -10 15 -16 0 -6 -8 -4 -17 6 -17 17 -18 17 -21 -2
-2 -10 -8 -23 -12 -28 -12 -12 0 36 13 52 11 14 21 17 13 3z m-1062 -9 c3 -5
-1 -9 -9 -9 -8 0 -12 4 -9 9 3 4 7 8 9 8 2 0 6 -4 9 -8z m1149 -15 c4 3 7 1 7
-5 0 -7 -4 -12 -8 -12 -12 0 -32 22 -32 35 0 5 7 2 14 -7 7 -10 16 -15 19 -11z
m-46 -19 c-3 -7 -5 -2 -5 12 0 14 2 19 5 13 2 -7 2 -19 0 -25z m-1102 -16 c-3
-3 -11 0 -18 7 -9 10 -8 11 6 5 10 -3 15 -9 12 -12z m1077 0 c-7 -2 -10 -8 -7
-13 4 -5 -2 -6 -11 -2 -11 4 -13 8 -6 11 7 2 10 8 7 13 -4 5 2 6 11 2 11 -4
13 -8 6 -11z m45 -17 c-12 -8 -14 -15 -8 -20 14 -8 14 -25 1 -25 -5 0 -9 5 -7
11 1 6 -3 13 -9 16 -22 8 -9 -32 14 -45 23 -13 28 -27 13 -36 -5 -3 -14 1 -21
9 -7 8 -9 15 -4 15 5 0 1 5 -8 11 -10 5 -15 16 -11 24 4 11 0 14 -13 9 -11 -3
-7 2 9 13 15 11 24 23 20 27 -4 4 0 4 10 0 14 -5 16 -2 11 12 -6 16 -5 17 7 6
12 -11 11 -15 -4 -27z m-79 -25 c-7 -10 -14 -18 -15 -16 -6 6 9 36 18 36 5 0
4 -9 -3 -20z m112 10 c0 -5 -4 -10 -10 -10 -5 0 -10 5 -10 10 0 6 5 10 10 10
6 0 10 -4 10 -10z m-1160 -40 c0 -5 -5 -10 -11 -10 -5 0 -7 5 -4 10 3 6 8 10
11 10 2 0 4 -4 4 -10z m1065 0 c-3 -5 -11 -10 -16 -10 -6 0 -7 5 -4 10 3 6 11
10 16 10 6 0 7 -4 4 -10z m95 0 c0 -5 -4 -10 -10 -10 -5 0 -10 5 -10 10 0 6 5
10 10 10 6 0 10 -4 10 -10z m-83 -17 c-4 -3 2 -12 13 -20 11 -8 19 -22 19 -31
-1 -14 -2 -14 -6 2 -4 15 -7 16 -15 5 -8 -11 -9 -10 -4 4 8 26 -10 21 -34 -10
-12 -16 -18 -21 -14 -13 4 8 14 23 22 33 13 14 13 17 1 17 -11 0 -11 2 1 10
17 11 26 13 17 3z m-1088 -30 c-13 -15 -12 -16 6 -9 15 5 17 4 8 -5 -18 -18
-35 -2 -21 21 7 11 14 17 17 15 2 -3 -2 -12 -10 -22z m-69 -13 c0 -6 -5 -10
-12 -10 -6 0 -8 3 -5 7 4 3 -1 12 -11 20 -15 13 -15 13 6 3 12 -6 22 -15 22
-20z m1240 6 c0 -3 -4 -8 -10 -11 -5 -3 -10 -1 -10 4 0 6 5 11 10 11 6 0 10
-2 10 -4z m-1265 -26 c3 -5 1 -10 -4 -10 -6 0 -11 5 -11 10 0 6 2 10 4 10 3 0
8 -4 11 -10z m80 -9 c0 -8 6 -16 14 -19 8 -3 11 0 7 6 -3 6 -2 13 3 17 10 6 6
-33 -4 -43 -7 -8 -34 31 -29 40 3 5 1 8 -5 8 -5 0 -11 -5 -13 -12 -3 -8 -6 -7
-10 4 -5 11 0 15 15 14 12 -1 22 -7 22 -15z m1107 1 c-7 -2 -10 -8 -7 -13 4
-5 -2 -6 -11 -2 -11 4 -13 8 -6 11 7 2 10 8 7 13 -4 5 2 6 11 2 11 -4 13 -8 6
-11z m45 -17 c-12 -8 -14 -15 -8 -20 14 -8 14 -25 1 -25 -5 0 -9 5 -7 11 1 6
-3 13 -9 16 -22 8 -9 -32 14 -45 23 -13 28 -27 13 -36 -5 -3 -14 1 -21 9 -7 8
-9 15 -4 15 5 0 1 5 -8 11 -10 5 -15 16 -11 24 4 11 0 14 -13 9 -11 -3 -7 2 9
13 15 11 24 23 20 27 -4 4 0 4 10 0 14 -5 16 -2 11 12 -6 16 -5 17 7 6 12 -11
11 -15 -4 -27z m-1212 -2 c-5 -23 -4 -25 9 -14 23 19 20 5 -4 -19 -11 -11 -20
-15 -20 -9 0 5 -4 8 -9 5 -4 -3 -1 10 8 29 19 41 26 45 16 8z m1236 -10 c-12
-20 -14 -14 -5 12 4 9 9 14 11 11 3 -2 0 -13 -6 -23z m-103 -13 c-7 -10 -14
-18 -15 -16 -6 6 9 36 18 36 5 0 4 -9 -3 -20z m-1068 -11 c12 -8 10 -9 -7 -4
-19 5 -22 3 -17 -12 5 -14 4 -15 -4 -3 -19 25 0 38 28 19z m1173 -14 c-3 -9
-8 -14 -10 -11 -3 3 -2 9 2 15 9 16 15 13 8 -4z m-1153 -15 c-8 -6 -11 -10 -6
-10 5 0 3 -7 -4 -15 -10 -12 -16 -13 -24 -5 -8 8 -4 16 14 30 14 10 27 16 30
14 2 -3 -2 -9 -10 -14z m1065 10 c-3 -5 -11 -10 -16 -10 -6 0 -7 5 -4 10 3 6
11 10 16 10 6 0 7 -4 4 -10z m12 -17 c-4 -3 2 -12 13 -20 11 -8 20 -20 19 -26
0 -9 -2 -8 -6 1 -2 6 -10 9 -15 6 -7 -5 -8 -2 -3 6 5 8 3 11 -6 8 -8 -3 -13
-11 -11 -17 1 -7 -2 -10 -8 -6 -8 5 -7 11 1 21 9 11 8 14 -2 14 -11 0 -11 2 1
10 17 11 26 13 17 3z m-1103 -52 c-5 -6 -34 20 -34 30 0 5 8 1 18 -8 10 -10
17 -20 16 -22z"/>
<path d="M1245 530 c3 -5 8 -10 11 -10 2 0 4 5 4 10 0 6 -5 10 -11 10 -5 0 -7
-4 -4 -10z"/>
<path d="M1245 210 c3 -5 8 -10 11 -10 2 0 4 5 4 10 0 6 -5 10 -11 10 -5 0 -7
-4 -4 -10z"/>
<path d="M1245 50 c3 -5 8 -10 11 -10 2 0 4 5 4 10 0 6 -5 10 -11 10 -5 0 -7
-4 -4 -10z"/>
<path d="M100 49 c0 -5 5 -7 10 -4 6 3 10 8 10 11 0 2 -4 4 -10 4 -5 0 -10 -5
-10 -11z"/>
<path d="M0 995 c0 -8 4 -15 10 -15 5 0 7 7 4 15 -4 8 -8 15 -10 15 -2 0 -4
-7 -4 -15z"/>
</g>
</svg>
